<svg width="512" height="512" viewBox="0 0 512 512" fill="none" xmlns="http://www.w3.org/2000/svg">
  <rect width="512" height="512" rx="128" fill="url(#g)"/>
  <path d="M256 366c-20-22-55-48-88-76-44-37-56-88-25-121 27-29 76-27 113 16 37-43 86-45 113-16 31 33 19 84-25 121-33 28-68 54-88 76Z" fill="white"/>
  <path d="M153 256c0-44 32-78 72-78 31 0 55 17 72 42 17-25 41-42 72-42" stroke="#FF6F91" stroke-width="22" stroke-linecap="round"/>
  <defs><linearGradient id="g" x1="66" y1="42" x2="451" y2="470" gradientUnits="userSpaceOnUse"><stop stop-color="#FF8FAB"/><stop offset=".48" stop-color="#FF6F91"/><stop offset="1" stop-color="#B388FF"/></linearGradient></defs>
</svg>
